<svg version="1.1" id="Layer_1" xmlns="http://www.w3.org/2000/svg" x="0px" y="0px" width="100%" viewBox="0 0 538 415" enable-background="new 0 0 538 415" xmlns:xlink="http://www.w3.org/1999/xlink"  xml:space="preserve">
    <path fill="#FBFCFA" opacity="1.000000" stroke="none" d=" M539.000000,132.000000 C539.000000,225.642242 538.979675,318.784515 539.084351,411.926636 C539.088013,415.189148 538.649780,416.105652 535.075317,416.103271 C358.455017,415.985474 181.834641,415.984833 5.214371,416.103943 C1.513878,416.106445 0.907796,415.227753 0.910532,411.716461 C1.016073,276.252045 1.014027,140.787552 0.919564,5.323145 C0.917190,1.919103 1.364897,0.885321 5.174764,0.888097 C181.795029,1.016803 358.415405,1.013622 535.035706,0.901239 C538.529175,0.899016 539.104126,1.684816 539.092834,5.033962 C538.951355,47.188934 539.000000,89.344551 539.000000,132.000000 z"/>
    <path fill="#58853A" opacity="1.000000" stroke="none" d=" M70.257629,411.081177 C34.391476,407.288757 8.160407,379.195892 6.833553,343.637024 C6.790068,342.471649 6.737954,341.305542 6.737892,340.139771 C6.733249,253.325424 6.703304,166.511063 6.751050,79.696732 C6.766025,52.470844 18.542627,31.686022 41.771057,17.557859 C52.536880,11.009791 64.476898,8.102073 77.028374,8.097978 C205.500259,8.056057 333.972351,7.953606 462.443970,8.141484 C502.419464,8.199944 532.910034,38.988155 532.977661,78.975861 C533.125061,166.123230 533.109497,253.271118 532.985352,340.418549 C532.927612,380.947052 502.621887,410.975403 461.634796,411.364624 C441.141113,411.559235 420.644073,411.402161 400.148560,411.402252 C295.171509,411.402649 190.194458,411.406433 85.217415,411.389618 C80.387451,411.388855 75.557526,411.201263 70.257629,411.081177 z"/>
    <path fill="#FEFEFE" opacity="1.000000" stroke="none" d=" M318.000000,403.020508 C237.686401,403.019775 157.872772,403.062378 78.059219,402.996216 C47.525307,402.970917 23.271906,383.789154 16.535561,354.571930 C15.411233,349.695465 15.018683,344.720764 15.019942,339.701080 C15.041660,253.055832 14.985428,166.410538 15.059741,79.765366 C15.090807,43.543240 41.362976,17.126827 77.704727,16.655828 C92.698524,16.461502 107.696892,16.619358 122.693184,16.619326 C234.998749,16.619074 347.304413,16.697744 459.609802,16.553308 C482.019196,16.524488 500.136566,24.574060 513.370117,42.803452 C521.370239,53.823803 524.646606,66.399353 524.646423,79.913589 C524.645081,166.558823 524.785828,253.204407 524.580200,339.849152 C524.492676,376.717773 497.782104,402.951935 460.964478,403.003632 C413.476410,403.070282 365.988159,403.020264 318.000000,403.020508 z"/>
    <path fill="#6DB440" opacity="1.000000" stroke="none" d=" M407.364807,289.252319 C400.390472,288.223663 395.622467,284.840698 392.330750,279.071869 C382.594513,262.008942 372.758789,245.002548 362.907684,228.005478 C359.057220,221.361908 358.958344,214.811829 362.817383,208.143372 C372.740753,190.995773 382.625244,173.825638 392.508270,156.654709 C396.335968,150.004364 401.964600,146.765518 409.725098,146.810440 C429.543823,146.925171 449.364166,146.933441 469.182709,146.807007 C476.985626,146.757233 482.540619,150.138489 486.355316,156.744156 C496.096771,173.612900 505.771637,190.520508 515.600525,207.338120 C519.783203,214.494843 519.830444,221.389984 515.639099,228.561630 C505.810516,245.379028 496.116913,262.275391 486.401581,279.158783 C482.477356,285.978394 476.668640,289.334167 468.776001,289.312134 C448.457123,289.255432 428.138031,289.285706 407.364807,289.252319 z"/>
    <path fill="#509AEB" opacity="1.000000" stroke="none" d="M 258.282 156.992 C 261.679 149.866 264.887 143.091 268.137 136.336 C 268.683 135.202 268.849 133.493 270.58 133.583 C 271.96 133.654 272.218 135.093 272.65 136.131 C 277.637 148.122 282.641 160.105 287.543 172.13 C 289.309 176.461 288.578 177.527 283.875 177.537 C 263.044 177.581 242.21 177.754 221.383 177.489 C 205.846 177.291 195.15 166.35 195.007 150.151 C 194.726 118.157 194.728 86.158 195.001 54.163 C 195.148 36.881 205.341 26.943 223.804 26.683 C 254.961 26.246 286.129 26.475 317.291 26.617 C 328.881 26.669 338.477 30.659 343.701 41.956 C 345.419 45.67 345.981 49.585 345.981 53.618 C 345.986 85.947 346.03 118.277 345.964 150.607 C 345.931 166.692 335.018 177.44 318.854 177.557 C 318.688 177.559 318.521 177.557 318.354 177.558 C 304.559 177.611 304.598 177.598 300.128 164.753 C 299.027 161.588 299.524 160.054 303.265 160.176 C 308.425 160.346 313.597 160.287 318.761 160.19 C 325.526 160.062 328.588 157.105 328.601 150.357 C 328.661 118.194 328.658 86.031 328.602 53.868 C 328.591 47.522 325.457 44.125 319.111 44.102 C 286.615 43.988 254.118 43.989 221.622 44.113 C 215.633 44.135 212.958 47.207 212.951 53.285 C 212.91 85.781 212.908 118.278 212.943 150.774 C 212.95 157.297 215.819 160.136 222.429 160.188 C 232.594 160.269 242.76 160.178 252.925 160.241 C 255.287 160.255 257.242 159.862 258.282 156.992 Z"/>
    <path fill="#F89C25" opacity="1.000000" stroke="none" d=" M78.463776,148.632904 C82.875275,141.332169 88.977242,136.158401 95.173569,131.082611 C102.386169,125.174316 109.995255,119.751060 116.630608,113.140221 C126.000755,103.804695 131.266861,93.015717 129.059311,79.434189 C128.966614,78.863914 129.047455,78.265450 129.047455,76.494865 C134.731171,84.246346 135.118790,91.774979 133.270325,99.546646 C131.168106,108.385071 125.940887,115.504257 119.978302,122.122810 C115.728180,126.840492 110.941963,130.983429 105.978996,134.927444 C101.530602,138.462509 97.383949,142.304031 93.887871,146.808365 C86.539581,156.275879 85.733818,166.250336 91.889900,176.555450 C94.874786,181.552078 98.285980,186.293167 101.472099,191.170914 C102.526184,192.784668 103.879692,194.286438 104.330582,197.725998 C93.939026,187.881943 84.110420,179.285812 78.337479,167.218124 C75.467972,161.219757 75.048950,155.052841 78.463776,148.632904 z"/>
    <path fill="#5B88A5" opacity="1.000000" stroke="none" d=" M143.801559,286.837219 C106.323441,292.163940 69.372528,291.268219 32.526344,285.034821 C28.888630,284.419403 23.873302,284.470520 23.058821,280.054749 C22.154018,275.149323 27.296587,273.843018 30.656773,272.056152 C36.883156,268.745148 43.688206,267.059906 50.676804,266.286469 C52.735836,266.058594 54.989361,265.619446 57.358391,267.531952 C51.092575,268.273285 45.419086,269.624878 40.189049,272.344727 C38.781902,273.076508 36.840290,273.717010 37.135548,275.807922 C37.381493,277.549591 39.189255,277.826080 40.546700,278.346741 C47.448421,280.993988 54.739128,282.115784 61.996994,282.683838 C95.287384,285.289490 128.506378,284.990753 161.491409,278.998749 C164.926559,278.374725 168.324860,277.521912 171.501007,275.998047 C174.154953,274.724731 176.596939,273.262665 175.853287,268.761444 C179.776794,271.679474 179.559174,273.948425 176.729126,276.283661 C173.321289,279.095673 169.183533,280.469940 165.085159,281.848083 C158.291046,284.132660 151.243744,285.389282 143.801559,286.837219 z"/>
    <path fill="#F89B24" opacity="1.000000" stroke="none" d=" M152.577942,122.940186 C149.231979,126.573677 144.433136,128.595627 140.272949,131.565247 C134.434036,135.733170 128.580093,139.855270 123.882507,145.355652 C117.921440,152.335434 117.394562,158.093109 122.109512,165.861267 C123.834290,168.702927 125.825943,171.383774 127.719719,174.121475 C133.169006,181.999146 133.002579,188.492859 127.028656,196.024017 C124.157387,199.643723 120.711601,202.612595 116.501450,205.054703 C116.180016,203.267212 117.314392,202.584183 117.841873,201.650558 C121.419159,195.318817 121.067078,189.744354 116.718224,183.976578 C114.615570,181.187851 112.345238,178.489243 110.556427,175.506577 C103.575172,163.866028 104.780540,152.858505 114.402420,143.253464 C124.931664,132.742630 138.135300,126.960762 152.577942,122.940186 z"/>
    <path fill="#5886A4" opacity="1.000000" stroke="none" d=" M116.516327,256.758606 C129.405579,254.484360 129.405579,254.484360 140.663086,260.869598 C133.023834,264.544434 125.130997,266.313690 117.112083,267.466492 C103.320976,269.449097 89.595901,269.309113 76.135712,265.172424 C73.926018,264.493347 71.703323,263.665985 69.712395,262.516205 C67.465401,261.218567 64.610741,259.759796 65.444435,256.543182 C66.275528,253.336609 69.454758,252.343857 72.233025,251.208359 C72.874374,250.946213 73.788467,250.953094 73.840836,251.728210 C74.181267,256.767273 78.344009,255.913574 81.298019,256.373108 C92.851311,258.170349 104.460243,258.498230 116.516327,256.758606 z"/>
    <path fill="#5B87A5" opacity="1.000000" stroke="none" d=" M91.539200,219.351257 C78.087601,219.383606 65.096756,219.357224 52.246929,217.043945 C50.284687,216.690704 48.281727,216.387283 46.414555,215.729065 C44.303818,214.984985 41.323612,214.785873 40.989307,212.028976 C40.635487,209.111115 43.581905,208.454559 45.589893,207.507156 C55.756077,202.710510 66.447044,199.937256 79.179306,199.443237 C73.164642,201.500519 68.473267,203.072159 63.809029,204.720596 C62.403145,205.217468 61.027878,205.846252 59.721161,206.564789 C58.588955,207.187378 57.054493,207.747864 57.177570,209.330704 C57.323807,211.211441 59.167305,211.453903 60.526405,211.794266 C67.525742,213.547226 74.724602,213.775406 81.860886,213.780167 C105.194336,213.795700 128.420990,212.172836 151.687988,208.111267 C145.156540,213.390701 138.746094,215.361755 124.868530,217.024445 C113.942329,218.333527 102.998657,219.160400 91.539200,219.351257 z"/>
    <path fill="#5986A4" opacity="1.000000" stroke="none" d=" M121.295952,233.356873 C123.385773,233.073090 125.139023,233.165680 126.675102,232.632553 C133.407501,230.295914 139.163132,231.798630 144.269180,236.875763 C135.199631,239.794739 125.868423,241.351639 116.453400,242.393036 C101.162140,244.084396 85.896965,244.262024 70.750290,240.968948 C67.644562,240.293732 64.604492,239.387848 61.874119,237.745117 C57.659756,235.209534 57.577496,231.995346 61.743347,229.265411 C63.762383,227.942322 66.067879,227.056366 68.560188,225.814850 C67.409286,231.575180 68.591171,233.101379 75.045677,233.807373 C90.321022,235.478134 105.605896,235.769394 121.295952,233.356873 z"/>
    <path fill="#5F8BA8" opacity="1.000000" stroke="none" d=" M78.180191,296.989624 C108.371346,298.168579 137.927246,297.364746 166.987335,290.127930 C174.211349,288.328949 181.105820,285.709930 188.433533,281.249023 C186.876953,286.325256 183.664749,288.300537 180.401077,290.104614 C173.012848,294.188629 164.893768,296.115784 156.667740,297.403229 C125.712257,302.248047 94.704346,302.728149 63.679413,297.985901 C61.944893,297.720734 60.249378,297.200348 58.566856,296.461639 C64.992943,295.063019 71.326721,297.004730 78.180191,296.989624 z"/>
    <path fill="#5B88A5" opacity="1.000000" stroke="none" d=" M183.719604,202.267273 C188.995651,207.517624 190.214294,213.302460 187.485504,219.849854 C183.633484,229.092255 166.611618,240.093277 155.900711,239.809402 C160.910065,236.575302 165.620438,233.917679 169.618912,230.286270 C172.958069,227.253632 176.141632,224.075867 177.965271,219.864288 C180.079269,214.982101 180.296387,210.058716 176.785461,205.743896 C173.314087,201.477707 168.695221,199.471756 163.122330,200.629150 C161.967224,200.869049 161.232880,200.898941 160.630219,199.874207 C168.549500,195.864502 175.820908,196.549271 183.719604,202.267273 z"/>
    <path fill="#F70E52" opacity="1.000000" stroke="none" d="M 268.288 123.177 C 262.043 126.979 255.948 130.379 249.984 133.996 C 246.28 136.242 245.461 134.906 245.532 131.174 C 245.662 124.362 245.53 117.544 245.435 110.287 C 245.486 109.633 245.609 109.422 246.084 109.109 C 254.117 111.993 260.702 116.962 268.125 121.131 C 268.546 121.886 268.583 122.37 268.288 123.177 Z"/>
    <path fill="#5096E3" opacity="1.000000" stroke="none" d="M 246.557 109.142 C 246.263 109.524 245.824 109.717 245.594 109.781 C 239.088 106.176 232.804 102.521 226.544 98.827 C 225.324 98.108 223.45 97.788 223.642 95.879 C 223.798 94.335 225.502 94.15 226.596 93.519 C 232.465 90.129 238.374 86.808 244.609 83.333 C 245.631 83.24 246.182 83.528 246.825 84.497 C 247.886 92.879 248.19 100.827 246.557 109.142 Z"/>
    <path fill="#5398E4" opacity="1.000000" stroke="none" d="M 294.554 109.251 C 295.073 116.853 294.809 124.144 294.88 131.432 C 294.921 135.603 293.395 136.044 290.165 134.137 C 284.318 130.684 278.442 127.28 272.321 123.642 C 271.709 123.057 271.516 122.617 271.618 121.741 C 278.963 116.956 286.118 112.379 294.554 109.251 Z"/>
    <path fill="#4F96E3" opacity="1.000000" stroke="none" d="M 269.901 66.888 C 276.413 63.068 282.88 59.679 289.162 55.977 C 292.77 53.851 293.83 54.775 293.735 58.686 C 293.572 65.323 293.617 71.965 293.456 79.057 C 292.831 80.108 292.152 80.3 291.047 80.293 C 284.005 76.954 277.799 72.805 270.968 69.084 C 270.212 68.415 269.841 67.885 269.901 66.888 Z"/>
    <path fill="#FB1155" opacity="1.000000" stroke="none" d="M 295.322 83.496 C 301.989 86.862 308.188 90.441 314.454 93.901 C 317.536 95.603 316.89 96.893 314.306 98.365 C 308.085 101.906 301.903 105.514 295.451 109.329 C 295.196 109.563 294.848 109.286 294.648 109.188 C 292.517 101.501 293.712 93.81 293.8 85.702 C 294.108 84.642 294.434 84.114 295.322 83.496 Z"/>
    <path fill="#F60F52" opacity="1.000000" stroke="none" d="M 269.726 66.452 C 269.878 66.831 269.817 67.097 269.84 67.527 C 268.914 70.039 266.722 71.021 264.697 71.961 C 259.488 74.379 254.987 78.058 249.291 80.292 C 248.409 80.336 247.924 80.225 247.187 79.749 C 246.919 72.332 246.986 65.173 246.907 58.016 C 246.871 54.773 247.919 54.223 250.706 55.834 C 256.898 59.413 263.182 62.832 269.726 66.452 Z"/>
    <path fill="#B5B6B7" opacity="1.000000" stroke="none" d="M 272.292 121.353 C 272.053 122.093 272.059 122.475 272.065 123.142 C 271.002 123.461 269.939 123.493 268.48 123.506 C 268.076 123.133 268.07 122.779 268.062 122.157 C 266.42 119.913 266.557 117.613 266.928 115.305 C 267.322 112.862 267.415 110.4 267.62 107.942 C 268.088 102.308 267.256 97.16 262.924 92.625 C 263.488 90.357 265.126 90.272 266.426 90.829 C 269.181 92.007 271.829 91.155 274.914 91.086 C 276.006 91.778 276.429 92.484 276.446 93.807 C 273.987 96.833 273.592 99.96 273.476 103.368 C 273.276 109.244 274.557 115.216 272.292 121.353 Z"/>
    <path fill="#919495" opacity="1.000000" stroke="none" d="M 276.369 93.676 C 275.749 92.938 275.462 92.362 275.065 91.484 C 274.056 89.211 275.616 88.429 276.844 87.819 C 281.688 85.416 286.057 82.193 291.241 79.662 C 292.022 79.509 292.463 79.497 293.121 79.497 C 294.111 80.577 294.884 81.645 295.71 83.022 C 295.492 83.521 295.222 83.711 294.733 84.024 C 289.218 88.555 283.672 92.503 276.369 93.676 Z"/>
    <path fill="#AF9EA4" opacity="1.000000" stroke="none" d="M 246.691 79.702 C 247.244 79.546 247.575 79.602 248.161 79.664 C 253.262 82.011 258.639 83.573 261.541 89.063 C 261.285 89.927 260.986 90.342 260.26 90.894 C 254.149 91.622 250.544 87.541 246.187 84.35 C 245.791 83.809 245.547 83.64 245.118 83.349 C 245.456 82.107 245.963 81.011 246.691 79.702 Z"/>
    <path fill="#F89B24" opacity="1.000000" stroke="none" d=" M152.993256,123.005020 C153.310059,122.786942 153.607605,122.543388 153.923080,122.325829 C153.939560,122.314461 154.108536,122.524239 154.206528,122.631058 C153.936111,122.734169 153.665710,122.837280 153.167603,122.945663 C152.939896,122.950928 152.977692,122.984917 152.993256,123.005020 z"/>
    <path fill="#FAFCF9" opacity="1.000000" stroke="none" d=" M439.923676,247.325165 C454.435059,246.314316 465.570160,237.990402 469.697754,225.402176 C473.862915,212.699371 469.958893,199.263214 459.469543,190.200745 C455.605835,186.862610 454.806793,183.609009 457.412384,180.917267 C460.810638,177.406677 463.957947,179.052155 467.044006,181.612366 C481.916779,193.950989 486.859985,215.012482 479.019073,232.788971 C471.314148,250.257126 452.266144,261.243500 434.165680,258.659119 C413.693359,255.736099 398.300873,240.622757 395.886017,220.911819 C393.929596,204.942551 399.485962,191.860535 411.487396,181.365906 C414.452637,178.772964 417.719177,177.611069 420.650146,181.085175 C423.517670,184.484116 422.059998,187.410507 418.975037,190.072510 C407.793579,199.720932 404.127075,212.833771 408.764343,226.019135 C413.311615,238.948593 424.707245,246.862671 439.923676,247.325165 z"/>
    <path fill="#F9FCF7" opacity="1.000000" stroke="none" d=" M432.582153,212.524643 C432.581635,201.084869 432.547607,190.094589 432.595734,179.104691 C432.620697,173.398041 435.033447,170.192764 439.096436,170.207382 C443.172729,170.222046 445.651794,173.491821 445.671814,179.095093 C445.711639,190.251572 445.705658,201.408386 445.675171,212.564926 C445.659546,218.278656 443.362671,221.492020 439.302032,221.661758 C435.286285,221.829620 432.968750,218.833252 432.582153,212.524643 z"/>
    <path fill="#111618" opacity="1.000000" stroke="none" d="M 245.953 84.507 C 250.931 85.204 254.517 88.986 259.508 90.784 C 259.983 90.672 260.092 90.523 260.443 90.237 C 260.871 90.123 261.056 90.145 261.501 90.276 C 261.924 90.481 262.087 90.575 262.628 91.083 C 262.923 91.64 262.84 91.784 262.757 91.928 C 270.487 96.084 268.577 103.381 268.599 110.011 C 268.61 113.663 268.406 117.315 268.179 121.428 C 260.611 118.535 253.789 114.067 246.527 109.718 C 245.352 101.365 245.992 93.183 245.953 84.507 Z"/>
    <path fill="#13171A" opacity="1.000000" stroke="none" d="M 275.75 93.742 C 282.473 91.404 287.456 86.483 294.183 84.218 C 294.559 92.169 294.603 100.19 294.548 108.651 C 287.585 113.892 280.364 118.073 272.411 121.667 C 271.972 114.228 271.987 106.741 271.777 99.261 C 271.698 96.407 273.247 95.043 275.75 93.742 Z"/>
    <path fill="#11171A" opacity="1.000000" stroke="none" d="M 261.586 88.989 C 258.277 84.873 252.705 83.776 248.909 79.577 C 255.748 75.288 262.683 71.354 269.926 67.32 C 277.766 70.132 284.298 74.869 291.636 78.914 C 289.864 83.227 285.238 83.928 281.876 86.366 C 279.907 87.795 277.696 88.892 275.473 90.435 C 271.336 94.469 267.637 91.158 263.618 90.632 C 263.404 91.047 263.43 91.046 263.435 91.059 C 263.027 90.593 262.424 90.552 261.636 90.222 C 261.4 90.05 261.419 90.046 261.416 90.053 C 261.35 89.78 261.287 89.5 261.586 88.989 Z"/>
    <path fill="#B5B6B7" opacity="1.000000" stroke="none" d=" M264.173798,203.898834 C264.579254,203.981201 264.637390,204.258484 264.341125,204.770767 C263.834198,205.194794 263.681610,205.383820 263.187042,205.445465 C263.172241,204.909943 263.499359,204.501846 264.173798,203.898834 z"/>
    <path fill="#B5B6B7" opacity="1.000000" stroke="none" d=" M263.929504,205.423386 C264.801697,203.504639 265.590179,204.250031 266.195190,205.529465 C265.213928,207.091629 264.557373,206.377243 263.929504,205.423386 z"/>
    <g style="" transform="matrix(0.434286, 0, 0, 0.434286, 197, 240)">
        <path d="M 279.498 104.56 L 332.425 49.891 L 279.498 49.891 L 279.498 104.56 Z" fill="#D62D69"/>
        <path d="M 175 106.663 L 255.546 49.891 L 316.586 49.891 L 316.586 66.14 L 175 212.944 L 30.131 212.944 L 175 106.663 Z" fill="#5A6396"/>
        <path d="M 0 0 L 175 0 L 175 175.097 L 0 0 Z" fill="#404A84"/>
        <path d="M 175 175.097 L 350 175.097 L 350 350 L 175 175.097 Z" fill="#404A84"/>
        <path d="M 350 175.097 L 175 0 L 175 175.097 L 350 175.097 Z" fill="#D1EBFF"/>
        <path d="M 175 212.944 C 175 211.799 175 104.56 175 104.56 L 316.584 104.56 L 175 212.944 Z" fill="#A8CFF0"/>
        <path d="M 316.584 104.56 L 316.584 66.14 L 279.498 104.56 L 316.584 104.56 Z" fill="#EFF1FE"/>
    </g>
</svg>
