<svg version="1.1" id="Layer_1" xmlns="http://www.w3.org/2000/svg" xmlns:xlink="http://www.w3.org/1999/xlink" x="0px" y="0px"
	 width="100%" viewBox="0 0 538 415" enable-background="new 0 0 538 415" xml:space="preserve">
<path fill="#FBFCFA" opacity="1.000000" stroke="none" 
	d="
M539.000000,132.000000 
	C539.000000,225.642242 538.979675,318.784515 539.084351,411.926636 
	C539.088013,415.189148 538.649780,416.105652 535.075317,416.103271 
	C358.455017,415.985474 181.834641,415.984833 5.214371,416.103943 
	C1.513878,416.106445 0.907796,415.227753 0.910532,411.716461 
	C1.016073,276.252045 1.014027,140.787552 0.919564,5.323145 
	C0.917190,1.919103 1.364897,0.885321 5.174764,0.888097 
	C181.795029,1.016803 358.415405,1.013622 535.035706,0.901239 
	C538.529175,0.899016 539.104126,1.684816 539.092834,5.033962 
	C538.951355,47.188934 539.000000,89.344551 539.000000,132.000000 
z"/>
<path fill="#58853A" opacity="1.000000" stroke="none" 
	d="
M70.257629,411.081177 
	C34.391476,407.288757 8.160407,379.195892 6.833553,343.637024 
	C6.790068,342.471649 6.737954,341.305542 6.737892,340.139771 
	C6.733249,253.325424 6.703304,166.511063 6.751050,79.696732 
	C6.766025,52.470844 18.542627,31.686022 41.771057,17.557859 
	C52.536880,11.009791 64.476898,8.102073 77.028374,8.097978 
	C205.500259,8.056057 333.972351,7.953606 462.443970,8.141484 
	C502.419464,8.199944 532.910034,38.988155 532.977661,78.975861 
	C533.125061,166.123230 533.109497,253.271118 532.985352,340.418549 
	C532.927612,380.947052 502.621887,410.975403 461.634796,411.364624 
	C441.141113,411.559235 420.644073,411.402161 400.148560,411.402252 
	C295.171509,411.402649 190.194458,411.406433 85.217415,411.389618 
	C80.387451,411.388855 75.557526,411.201263 70.257629,411.081177 
z"/>
<path fill="#FEFEFE" opacity="1.000000" stroke="none" 
	d="
M318.000000,403.020508 
	C237.686401,403.019775 157.872772,403.062378 78.059219,402.996216 
	C47.525307,402.970917 23.271906,383.789154 16.535561,354.571930 
	C15.411233,349.695465 15.018683,344.720764 15.019942,339.701080 
	C15.041660,253.055832 14.985428,166.410538 15.059741,79.765366 
	C15.090807,43.543240 41.362976,17.126827 77.704727,16.655828 
	C92.698524,16.461502 107.696892,16.619358 122.693184,16.619326 
	C234.998749,16.619074 347.304413,16.697744 459.609802,16.553308 
	C482.019196,16.524488 500.136566,24.574060 513.370117,42.803452 
	C521.370239,53.823803 524.646606,66.399353 524.646423,79.913589 
	C524.645081,166.558823 524.785828,253.204407 524.580200,339.849152 
	C524.492676,376.717773 497.782104,402.951935 460.964478,403.003632 
	C413.476410,403.070282 365.988159,403.020264 318.000000,403.020508 
z"/>
<path fill="#6DB440" opacity="1.000000" stroke="none" 
	d="
M407.364807,289.252319 
	C400.390472,288.223663 395.622467,284.840698 392.330750,279.071869 
	C382.594513,262.008942 372.758789,245.002548 362.907684,228.005478 
	C359.057220,221.361908 358.958344,214.811829 362.817383,208.143372 
	C372.740753,190.995773 382.625244,173.825638 392.508270,156.654709 
	C396.335968,150.004364 401.964600,146.765518 409.725098,146.810440 
	C429.543823,146.925171 449.364166,146.933441 469.182709,146.807007 
	C476.985626,146.757233 482.540619,150.138489 486.355316,156.744156 
	C496.096771,173.612900 505.771637,190.520508 515.600525,207.338120 
	C519.783203,214.494843 519.830444,221.389984 515.639099,228.561630 
	C505.810516,245.379028 496.116913,262.275391 486.401581,279.158783 
	C482.477356,285.978394 476.668640,289.334167 468.776001,289.312134 
	C448.457123,289.255432 428.138031,289.285706 407.364807,289.252319 
z"/>
<path fill="#509AEB" opacity="1.000000" stroke="none" 
	d="
M260.855560,271.938568 
	C264.252319,264.812958 267.460175,258.037842 270.710175,251.282959 
	C271.256012,250.148483 271.422455,248.439392 273.152985,248.529129 
	C274.533173,248.600723 274.791260,250.039505 275.223206,251.078003 
	C280.210449,263.068176 285.213867,275.051941 290.116699,287.076660 
	C291.882690,291.407990 291.150787,292.473328 286.448029,292.483337 
	C265.617096,292.527618 244.783508,292.700500 223.955872,292.435303 
	C208.419632,292.237457 197.722839,281.296295 197.580490,265.097900 
	C197.299316,233.103958 197.301086,201.104126 197.574066,169.110046 
	C197.721527,151.827484 207.914444,141.889297 226.377213,141.630035 
	C257.534149,141.192535 288.702148,141.421967 319.864624,141.563431 
	C331.454620,141.616043 341.050049,145.605759 346.274353,156.902374 
	C347.992096,160.616714 348.553864,164.531967 348.554443,168.564072 
	C348.559021,200.893799 348.603271,233.223618 348.537109,265.553223 
	C348.504181,281.638397 337.591064,292.386902 321.427429,292.503998 
	C321.260773,292.505219 321.094147,292.503937 320.927490,292.504578 
	C307.132599,292.557648 307.170837,292.544342 302.701691,279.699860 
	C301.600494,276.534973 302.097382,275.000275 305.838196,275.123016 
	C310.998566,275.292297 316.170349,275.233795 321.334625,275.136078 
	C328.099426,275.008087 331.161102,272.051270 331.173737,265.303375 
	C331.234100,233.140442 331.230957,200.977264 331.174957,168.814301 
	C331.163910,162.468155 328.030273,159.071381 321.683716,159.049042 
	C289.187805,158.934616 256.691040,158.935501 224.195190,159.059052 
	C218.206223,159.081818 215.531387,162.153839 215.523727,168.231705 
	C215.482773,200.728012 215.481018,233.224411 215.516159,265.720734 
	C215.523209,272.243286 218.392670,275.082062 225.002243,275.134583 
	C235.167145,275.215393 245.333344,275.124451 255.498505,275.187103 
	C257.860199,275.201630 259.814758,274.808746 260.855560,271.938568 
z"/>
<path fill="#F89C25" opacity="1.000000" stroke="none" 
	d="
M78.463776,148.632904 
	C82.875275,141.332169 88.977242,136.158401 95.173569,131.082611 
	C102.386169,125.174316 109.995255,119.751060 116.630608,113.140221 
	C126.000755,103.804695 131.266861,93.015717 129.059311,79.434189 
	C128.966614,78.863914 129.047455,78.265450 129.047455,76.494865 
	C134.731171,84.246346 135.118790,91.774979 133.270325,99.546646 
	C131.168106,108.385071 125.940887,115.504257 119.978302,122.122810 
	C115.728180,126.840492 110.941963,130.983429 105.978996,134.927444 
	C101.530602,138.462509 97.383949,142.304031 93.887871,146.808365 
	C86.539581,156.275879 85.733818,166.250336 91.889900,176.555450 
	C94.874786,181.552078 98.285980,186.293167 101.472099,191.170914 
	C102.526184,192.784668 103.879692,194.286438 104.330582,197.725998 
	C93.939026,187.881943 84.110420,179.285812 78.337479,167.218124 
	C75.467972,161.219757 75.048950,155.052841 78.463776,148.632904 
z"/>
<path fill="#5B88A5" opacity="1.000000" stroke="none" 
	d="
M143.801559,286.837219 
	C106.323441,292.163940 69.372528,291.268219 32.526344,285.034821 
	C28.888630,284.419403 23.873302,284.470520 23.058821,280.054749 
	C22.154018,275.149323 27.296587,273.843018 30.656773,272.056152 
	C36.883156,268.745148 43.688206,267.059906 50.676804,266.286469 
	C52.735836,266.058594 54.989361,265.619446 57.358391,267.531952 
	C51.092575,268.273285 45.419086,269.624878 40.189049,272.344727 
	C38.781902,273.076508 36.840290,273.717010 37.135548,275.807922 
	C37.381493,277.549591 39.189255,277.826080 40.546700,278.346741 
	C47.448421,280.993988 54.739128,282.115784 61.996994,282.683838 
	C95.287384,285.289490 128.506378,284.990753 161.491409,278.998749 
	C164.926559,278.374725 168.324860,277.521912 171.501007,275.998047 
	C174.154953,274.724731 176.596939,273.262665 175.853287,268.761444 
	C179.776794,271.679474 179.559174,273.948425 176.729126,276.283661 
	C173.321289,279.095673 169.183533,280.469940 165.085159,281.848083 
	C158.291046,284.132660 151.243744,285.389282 143.801559,286.837219 
z"/>
<path fill="#F89B24" opacity="1.000000" stroke="none" 
	d="
M152.577942,122.940186 
	C149.231979,126.573677 144.433136,128.595627 140.272949,131.565247 
	C134.434036,135.733170 128.580093,139.855270 123.882507,145.355652 
	C117.921440,152.335434 117.394562,158.093109 122.109512,165.861267 
	C123.834290,168.702927 125.825943,171.383774 127.719719,174.121475 
	C133.169006,181.999146 133.002579,188.492859 127.028656,196.024017 
	C124.157387,199.643723 120.711601,202.612595 116.501450,205.054703 
	C116.180016,203.267212 117.314392,202.584183 117.841873,201.650558 
	C121.419159,195.318817 121.067078,189.744354 116.718224,183.976578 
	C114.615570,181.187851 112.345238,178.489243 110.556427,175.506577 
	C103.575172,163.866028 104.780540,152.858505 114.402420,143.253464 
	C124.931664,132.742630 138.135300,126.960762 152.577942,122.940186 
z"/>
<path fill="#5886A4" opacity="1.000000" stroke="none" 
	d="
M116.516327,256.758606 
	C129.405579,254.484360 129.405579,254.484360 140.663086,260.869598 
	C133.023834,264.544434 125.130997,266.313690 117.112083,267.466492 
	C103.320976,269.449097 89.595901,269.309113 76.135712,265.172424 
	C73.926018,264.493347 71.703323,263.665985 69.712395,262.516205 
	C67.465401,261.218567 64.610741,259.759796 65.444435,256.543182 
	C66.275528,253.336609 69.454758,252.343857 72.233025,251.208359 
	C72.874374,250.946213 73.788467,250.953094 73.840836,251.728210 
	C74.181267,256.767273 78.344009,255.913574 81.298019,256.373108 
	C92.851311,258.170349 104.460243,258.498230 116.516327,256.758606 
z"/>
<path fill="#5B87A5" opacity="1.000000" stroke="none" 
	d="
M91.539200,219.351257 
	C78.087601,219.383606 65.096756,219.357224 52.246929,217.043945 
	C50.284687,216.690704 48.281727,216.387283 46.414555,215.729065 
	C44.303818,214.984985 41.323612,214.785873 40.989307,212.028976 
	C40.635487,209.111115 43.581905,208.454559 45.589893,207.507156 
	C55.756077,202.710510 66.447044,199.937256 79.179306,199.443237 
	C73.164642,201.500519 68.473267,203.072159 63.809029,204.720596 
	C62.403145,205.217468 61.027878,205.846252 59.721161,206.564789 
	C58.588955,207.187378 57.054493,207.747864 57.177570,209.330704 
	C57.323807,211.211441 59.167305,211.453903 60.526405,211.794266 
	C67.525742,213.547226 74.724602,213.775406 81.860886,213.780167 
	C105.194336,213.795700 128.420990,212.172836 151.687988,208.111267 
	C145.156540,213.390701 138.746094,215.361755 124.868530,217.024445 
	C113.942329,218.333527 102.998657,219.160400 91.539200,219.351257 
z"/>
<path fill="#5986A4" opacity="1.000000" stroke="none" 
	d="
M121.295952,233.356873 
	C123.385773,233.073090 125.139023,233.165680 126.675102,232.632553 
	C133.407501,230.295914 139.163132,231.798630 144.269180,236.875763 
	C135.199631,239.794739 125.868423,241.351639 116.453400,242.393036 
	C101.162140,244.084396 85.896965,244.262024 70.750290,240.968948 
	C67.644562,240.293732 64.604492,239.387848 61.874119,237.745117 
	C57.659756,235.209534 57.577496,231.995346 61.743347,229.265411 
	C63.762383,227.942322 66.067879,227.056366 68.560188,225.814850 
	C67.409286,231.575180 68.591171,233.101379 75.045677,233.807373 
	C90.321022,235.478134 105.605896,235.769394 121.295952,233.356873 
z"/>
<path fill="#5F8BA8" opacity="1.000000" stroke="none" 
	d="
M78.180191,296.989624 
	C108.371346,298.168579 137.927246,297.364746 166.987335,290.127930 
	C174.211349,288.328949 181.105820,285.709930 188.433533,281.249023 
	C186.876953,286.325256 183.664749,288.300537 180.401077,290.104614 
	C173.012848,294.188629 164.893768,296.115784 156.667740,297.403229 
	C125.712257,302.248047 94.704346,302.728149 63.679413,297.985901 
	C61.944893,297.720734 60.249378,297.200348 58.566856,296.461639 
	C64.992943,295.063019 71.326721,297.004730 78.180191,296.989624 
z"/>
<path fill="#5B88A5" opacity="1.000000" stroke="none" 
	d="
M183.719604,202.267273 
	C188.995651,207.517624 190.214294,213.302460 187.485504,219.849854 
	C183.633484,229.092255 166.611618,240.093277 155.900711,239.809402 
	C160.910065,236.575302 165.620438,233.917679 169.618912,230.286270 
	C172.958069,227.253632 176.141632,224.075867 177.965271,219.864288 
	C180.079269,214.982101 180.296387,210.058716 176.785461,205.743896 
	C173.314087,201.477707 168.695221,199.471756 163.122330,200.629150 
	C161.967224,200.869049 161.232880,200.898941 160.630219,199.874207 
	C168.549500,195.864502 175.820908,196.549271 183.719604,202.267273 
z"/>
<path fill="#F70E52" opacity="1.000000" stroke="none" 
	d="
M271.258667,237.674500 
	C265.013489,241.476730 258.918518,244.877029 252.954727,248.493637 
	C249.250443,250.740005 248.431595,249.403351 248.502823,245.671738 
	C248.632858,238.859344 248.500351,232.041962 248.405853,224.784363 
	C248.456970,224.130768 248.579575,223.919464 249.054535,223.606506 
	C257.087402,226.490326 263.672882,231.459274 271.095825,235.628723 
	C271.517151,236.383163 271.553284,236.868027 271.258667,237.674500 
z"/>
<path fill="#5096E3" opacity="1.000000" stroke="none" 
	d="
M249.527374,223.640015 
	C249.233536,224.021240 248.795258,224.214233 248.564804,224.278168 
	C242.058807,220.673553 235.775208,217.018661 229.514648,213.324722 
	C228.295273,212.605270 226.420883,212.285217 226.613251,210.376816 
	C226.768860,208.832947 228.472961,208.647919 229.566711,208.016235 
	C235.435928,204.626450 241.344772,201.305313 247.579605,197.830917 
	C248.601578,197.737534 249.152344,198.025543 249.796082,198.994476 
	C250.857147,207.376663 251.161118,215.324585 249.527374,223.640015 
z"/>
<path fill="#5398E4" opacity="1.000000" stroke="none" 
	d="
M297.524536,223.748428 
	C298.043732,231.350296 297.779327,238.641403 297.851074,245.929199 
	C297.892151,250.100998 296.365997,250.541885 293.135712,248.634216 
	C287.288727,245.181259 281.412689,241.777588 275.291901,238.139679 
	C274.679352,237.554138 274.486359,237.114594 274.588684,236.238998 
	C281.933807,231.453476 289.088837,226.876221 297.524536,223.748428 
z"/>
<path fill="#4F96E3" opacity="1.000000" stroke="none" 
	d="
M272.872192,181.385162 
	C279.383942,177.565186 285.850616,174.176529 292.132629,170.474503 
	C295.740570,168.348343 296.801117,169.273010 296.705292,173.183975 
	C296.542633,179.820770 296.587677,186.462662 296.426880,193.554199 
	C295.802124,194.605408 295.123138,194.798126 294.017395,194.790771 
	C286.975922,191.451935 280.769989,187.302200 273.939148,183.581665 
	C273.182587,182.912979 272.811920,182.382843 272.872192,181.385162 
z"/>
<path fill="#FB1155" opacity="1.000000" stroke="none" 
	d="
M298.292542,197.993896 
	C304.959534,201.359253 311.158936,204.938828 317.424561,208.398499 
	C320.506927,210.100464 319.860931,211.390991 317.276428,212.862228 
	C311.056122,216.403244 304.874268,220.011734 298.422058,223.826782 
	C298.167236,224.060577 297.818787,223.783218 297.618896,223.685181 
	C295.487732,215.998795 296.682648,208.307709 296.770905,200.199738 
	C297.079071,199.139374 297.404572,198.611389 298.292542,197.993896 
z"/>
<path fill="#F60F52" opacity="1.000000" stroke="none" 
	d="
M272.696899,180.949478 
	C272.848358,181.328705 272.787842,181.594879 272.810608,182.024994 
	C271.884857,184.536392 269.692719,185.518585 267.667450,186.458649 
	C262.458374,188.876526 257.958191,192.555313 252.261414,194.789490 
	C251.380264,194.834091 250.894699,194.722687 250.157928,194.247070 
	C249.890091,186.829544 249.957123,179.670914 249.877716,172.513885 
	C249.841736,169.270828 250.889633,168.720901 253.676804,170.331985 
	C259.868439,173.910934 266.152679,177.329697 272.696899,180.949478 
z"/>
<path fill="#B5B6B7" opacity="1.000000" stroke="none" 
	d="
M275.262390,235.850479 
	C275.023743,236.590881 275.029999,236.972473 275.035645,237.640045 
	C273.972626,237.958252 272.910248,237.990448 271.450439,238.003845 
	C271.047058,237.630768 271.041107,237.276459 271.032410,236.654968 
	C269.390808,234.410309 269.527771,232.110275 269.899231,229.802704 
	C270.292511,227.359634 270.386169,224.897797 270.590332,222.439865 
	C271.058350,216.805466 270.227081,211.657211 265.895081,207.122894 
	C266.458435,204.854736 268.096405,204.770096 269.397064,205.326431 
	C272.152100,206.504883 274.800232,205.652939 277.884796,205.583282 
	C278.977142,206.275650 279.399506,206.981216 279.416504,208.304520 
	C276.958069,211.330704 276.562561,214.457550 276.446503,217.865372 
	C276.246338,223.741898 277.528046,229.713531 275.262390,235.850479 
z"/>
<path fill="#919495" opacity="1.000000" stroke="none" 
	d="
M279.340271,208.174011 
	C278.719421,207.435837 278.433136,206.860001 278.035461,205.981735 
	C277.026703,203.708450 278.586395,202.926529 279.815247,202.316895 
	C284.659271,199.913712 289.027893,196.690598 294.212128,194.159393 
	C294.992828,194.006256 295.434235,193.994812 296.091980,193.994690 
	C297.081726,195.074219 297.855194,196.142410 298.680725,197.519836 
	C298.462952,198.018845 298.193085,198.208603 297.703979,198.521332 
	C292.188782,203.052246 286.642731,207.000671 279.340271,208.174011 
z"/>
<path fill="#AF9EA4" opacity="1.000000" stroke="none" 
	d="
M249.661774,194.199707 
	C250.214462,194.043427 250.546112,194.099319 251.132050,194.162094 
	C256.232300,196.508652 261.610229,198.070465 264.511383,203.560638 
	C264.255890,204.425064 263.956604,204.840118 263.230682,205.391296 
	C257.120056,206.119263 253.514709,202.038879 249.157684,198.847260 
	C248.761703,198.307129 248.518158,198.137680 248.088776,197.846527 
	C248.426407,196.604858 248.933563,195.508362 249.661774,194.199707 
z"/>
<path fill="#F89B24" opacity="1.000000" stroke="none" 
	d="
M152.993256,123.005020 
	C153.310059,122.786942 153.607605,122.543388 153.923080,122.325829 
	C153.939560,122.314461 154.108536,122.524239 154.206528,122.631058 
	C153.936111,122.734169 153.665710,122.837280 153.167603,122.945663 
	C152.939896,122.950928 152.977692,122.984917 152.993256,123.005020 
z"/>
<path fill="#FAFCF9" opacity="1.000000" stroke="none" 
	d="
M439.923676,247.325165 
	C454.435059,246.314316 465.570160,237.990402 469.697754,225.402176 
	C473.862915,212.699371 469.958893,199.263214 459.469543,190.200745 
	C455.605835,186.862610 454.806793,183.609009 457.412384,180.917267 
	C460.810638,177.406677 463.957947,179.052155 467.044006,181.612366 
	C481.916779,193.950989 486.859985,215.012482 479.019073,232.788971 
	C471.314148,250.257126 452.266144,261.243500 434.165680,258.659119 
	C413.693359,255.736099 398.300873,240.622757 395.886017,220.911819 
	C393.929596,204.942551 399.485962,191.860535 411.487396,181.365906 
	C414.452637,178.772964 417.719177,177.611069 420.650146,181.085175 
	C423.517670,184.484116 422.059998,187.410507 418.975037,190.072510 
	C407.793579,199.720932 404.127075,212.833771 408.764343,226.019135 
	C413.311615,238.948593 424.707245,246.862671 439.923676,247.325165 
z"/>
<path fill="#F9FCF7" opacity="1.000000" stroke="none" 
	d="
M432.582153,212.524643 
	C432.581635,201.084869 432.547607,190.094589 432.595734,179.104691 
	C432.620697,173.398041 435.033447,170.192764 439.096436,170.207382 
	C443.172729,170.222046 445.651794,173.491821 445.671814,179.095093 
	C445.711639,190.251572 445.705658,201.408386 445.675171,212.564926 
	C445.659546,218.278656 443.362671,221.492020 439.302032,221.661758 
	C435.286285,221.829620 432.968750,218.833252 432.582153,212.524643 
z"/>
<path fill="#111618" opacity="1.000000" stroke="none" 
	d="
M248.923340,199.004669 
	C253.901688,199.701157 257.487732,203.483215 262.478455,205.281982 
	C262.953827,205.169205 263.062531,205.020340 263.413666,204.735016 
	C263.841553,204.620529 264.027039,204.642532 264.472046,204.773956 
	C264.894531,204.978256 265.057495,205.073105 265.598755,205.580780 
	C265.894135,206.137573 265.811188,206.281555 265.728271,206.425537 
	C273.457397,210.581161 271.547577,217.878860 271.569305,224.508987 
	C271.581268,228.160248 271.376434,231.812225 271.149536,235.925842 
	C263.581512,233.032700 256.760223,228.564545 249.498032,224.215424 
	C248.323181,215.862625 248.962296,207.680252 248.923340,199.004669 
z"/>
<path fill="#13171A" opacity="1.000000" stroke="none" 
	d="
M278.720642,208.239960 
	C285.444214,205.902008 290.426941,200.980408 297.153564,198.715912 
	C297.529419,206.666153 297.574097,214.687988 297.518860,223.148499 
	C290.556152,228.389343 283.334351,232.570709 275.382019,236.164246 
	C274.942841,228.725418 274.957520,221.239014 274.748230,213.758896 
	C274.668365,210.904739 276.218109,209.540390 278.720642,208.239960 
z"/>
<path fill="#11171A" opacity="1.000000" stroke="none" 
	d="
M264.159119,203.935638 
	C260.849854,199.819397 255.278107,198.722198 251.482483,194.524017 
	C258.321106,190.234848 265.255890,186.300751 272.499420,182.266449 
	C280.339569,185.078644 286.871552,189.815109 294.209595,193.861008 
	C292.437439,198.173065 287.811310,198.874115 284.449371,201.313034 
	C282.479919,202.741776 280.269470,203.838364 278.045776,205.381836 
	C273.909454,209.415146 270.210327,206.104095 266.191071,205.578613 
	C265.977081,205.993591 266.003082,205.992523 266.007812,206.005905 
	C265.599854,205.539352 264.997070,205.499023 264.209045,205.168976 
	C263.973114,204.996536 263.992157,204.992584 263.989471,204.999176 
	C263.923615,204.726318 263.860413,204.446854 264.159119,203.935638 
z"/>
<path fill="#B5B6B7" opacity="1.000000" stroke="none" 
	d="
M264.173798,203.898834 
	C264.579254,203.981201 264.637390,204.258484 264.341125,204.770767 
	C263.834198,205.194794 263.681610,205.383820 263.187042,205.445465 
	C263.172241,204.909943 263.499359,204.501846 264.173798,203.898834 
z"/>
<path fill="#B5B6B7" opacity="1.000000" stroke="none" 
	d="
M263.929504,205.423386 
	C264.801697,203.504639 265.590179,204.250031 266.195190,205.529465 
	C265.213928,207.091629 264.557373,206.377243 263.929504,205.423386 
z"/>
</svg>