<svg version="1.1" id="Layer_1" xmlns="http://www.w3.org/2000/svg" xmlns:xlink="http://www.w3.org/1999/xlink" x="0px" y="0px"
	 width="100%" viewBox="0 0 541 414" enable-background="new 0 0 541 414" xml:space="preserve">
<path fill="#FEFFFE" opacity="1.000000" stroke="none" 
	d="
M542.000000,131.000000 
	C542.000000,224.642288 541.979614,317.784607 542.084351,410.926788 
	C542.088013,414.189667 541.649292,415.105560 538.075134,415.103210 
	C360.455017,414.985504 182.834808,414.984955 5.214716,415.103882 
	C1.515176,415.106354 0.907702,414.229034 0.910449,410.716797 
	C1.016133,275.585541 1.014065,140.454239 0.919528,5.323008 
	C0.917146,1.918584 1.365429,0.885376 5.174906,0.888134 
	C182.794998,1.016703 360.415222,1.013537 538.035339,0.901290 
	C541.528076,0.899082 542.104309,1.683652 542.092957,5.033613 
	C541.950989,46.855362 542.000000,88.677765 542.000000,131.000000 
z"/>
<path fill="#5E8941" opacity="1.000000" stroke="none" 
	d="
M511.545959,23.441425 
	C527.863586,38.057468 535.889893,56.111774 535.909058,77.573807 
	C535.986633,164.552917 536.050598,251.532333 535.893677,338.511230 
	C535.820496,379.070221 505.274200,409.783264 464.721252,409.835876 
	C336.752106,410.001984 208.782501,409.985199 80.813278,409.847168 
	C39.974857,409.803101 9.495886,379.349548 9.381491,338.257294 
	C9.139818,251.445419 9.155076,164.631989 9.382995,77.820023 
	C9.477196,41.939636 33.190334,13.653288 67.543236,7.531723 
	C72.595497,6.631428 77.818672,6.358041 82.963051,6.355504 
	C209.432755,6.293124 335.902496,6.332466 462.372223,6.277793 
	C480.696228,6.269871 497.161163,11.258108 511.545959,23.441425 
z"/>
<path fill="#FDFDFD" opacity="1.000000" stroke="none" 
	d="
M500.535217,390.610291 
	C489.057404,398.204071 476.757111,401.301300 463.377197,401.292236 
	C336.229645,401.206146 209.082001,401.264404 81.934395,401.224304 
	C50.646851,401.214417 26.836807,383.025360 19.599691,353.875580 
	C18.307739,348.671814 17.924082,343.385529 17.925406,338.035065 
	C17.946869,251.381393 17.888340,164.727661 17.965481,78.074051 
	C17.997967,41.581783 44.552742,14.986010 81.024467,14.966825 
	C208.838608,14.899597 336.652832,14.893778 464.466949,14.971269 
	C500.306641,14.992997 527.058167,40.965199 527.193481,76.807503 
	C527.523682,164.293137 527.343506,251.780884 527.274231,339.267700 
	C527.257263,360.770050 518.158569,377.757263 500.535217,390.610291 
z"/>
<path fill="#070707" opacity="1.000000" stroke="none" 
	d="
M116.425110,299.266418 
	C122.648354,314.015167 120.269653,326.914032 109.555840,338.590332 
	C102.016899,346.806549 95.087082,355.581757 87.547249,363.797119 
	C70.343124,382.542786 40.325638,376.453461 32.113495,352.468872 
	C28.144051,340.875671 30.561539,330.098175 38.527534,320.746002 
	C46.085598,311.872711 53.840477,303.167236 61.424255,294.315552 
	C69.850159,284.480927 80.229851,280.462433 93.045212,283.306091 
	C94.500702,283.629059 95.987343,283.829834 97.469307,284.004364 
	C97.917747,284.057220 98.399071,283.830963 99.156158,283.671143 
	C95.055756,275.004364 93.809662,266.201294 96.915321,257.018921 
	C98.217506,253.168793 100.088852,249.663757 102.698280,246.621445 
	C110.718872,237.270294 118.756638,227.930359 126.967926,218.747177 
	C136.439545,208.154434 149.873367,204.598145 162.265610,209.118088 
	C175.988297,214.123306 184.192688,225.093887 184.615677,239.760284 
	C184.850174,247.890854 181.762863,255.075974 176.500687,261.233398 
	C169.144562,269.841034 161.527328,278.228851 154.288254,286.932343 
	C144.639236,298.533386 132.580872,302.220123 117.687729,298.739441 
	C116.905670,298.524536 116.667450,298.642303 116.425110,299.266418 
z"/>
<path fill="#0F0F0F" opacity="1.000000" stroke="none" 
	d="
M327.516052,44.478752 
	C336.396118,48.952915 340.232513,55.358219 340.090363,65.446053 
	C339.595062,100.604996 339.810944,135.775650 339.988342,170.940674 
	C340.016663,176.550797 337.909882,180.432114 333.617523,183.667892 
	C325.564758,189.738388 316.300720,192.976013 306.602661,194.748047 
	C280.402283,199.535461 254.282196,199.542831 228.465744,192.117538 
	C221.682007,190.166428 215.446304,187.081482 210.006226,182.495346 
	C206.747879,179.748459 205.188126,176.376129 205.193253,172.026581 
	C205.236618,135.194336 205.234467,98.361794 205.107986,61.529816 
	C205.085419,54.957504 208.271057,50.547405 213.325439,47.038567 
	C221.025436,41.693092 229.852142,39.032139 238.853317,37.387047 
	C264.899811,32.626686 290.879456,32.637833 316.521606,40.123070 
	C320.175232,41.189606 323.644073,42.888969 327.516052,44.478752 
z"/>
<path fill="#040404" opacity="1.000000" stroke="none" 
	d="
M354.444702,365.984039 
	C355.740540,370.546234 354.662994,373.943085 350.646881,375.986816 
	C346.503876,378.095154 343.370270,376.202789 340.450073,373.254150 
	C332.241302,364.965302 323.879425,356.826660 315.755981,348.455933 
	C313.729248,346.367493 312.564331,346.256622 310.090698,347.972046 
	C265.690033,378.762695 206.652390,352.860229 199.229416,299.424591 
	C193.702332,259.636963 225.698242,221.879639 266.035217,220.878357 
	C294.970673,220.160110 317.230896,232.426498 330.903290,257.800751 
	C344.472473,282.983368 342.315491,308.113678 326.220947,331.822632 
	C324.571411,334.252563 324.588196,335.425446 326.689636,337.457031 
	C334.835419,345.332092 342.782959,353.412933 350.761536,361.459595 
	C352.036133,362.745056 353.091919,364.247498 354.444702,365.984039 
z"/>
<path fill="#131313" opacity="1.000000" stroke="none" 
	d="
M356.669312,109.368057 
	C364.123505,106.696510 370.834595,107.312531 376.808289,112.088814 
	C380.235596,114.829147 381.340912,111.032967 383.379425,110.012909 
	C385.738556,108.832382 384.238770,107.324051 383.372650,105.978676 
	C381.931763,103.740379 380.276123,101.615021 379.062164,99.260963 
	C376.198669,93.708099 373.418884,90.261620 365.597351,92.133217 
	C355.896362,94.454552 344.927582,84.379097 345.734863,74.307304 
	C346.714264,62.087948 350.800018,55.562557 361.437561,53.646057 
	C371.387909,51.853359 379.895172,57.399952 383.651978,68.484238 
	C384.346008,70.531929 385.202118,70.951538 387.091766,70.934418 
	C395.419556,70.858955 403.751190,70.783073 412.075226,70.975693 
	C414.523560,71.032349 415.044952,69.893562 415.687775,67.977188 
	C419.214233,57.464317 427.917053,51.888863 437.773163,53.662838 
	C448.289246,55.555584 454.639923,63.566162 454.093201,74.720505 
	C453.962830,77.380661 454.649017,78.435272 457.144348,79.328995 
	C466.063782,82.523567 474.905212,85.945160 483.703796,89.461937 
	C486.106171,90.422142 487.351288,90.101494 489.036072,87.963219 
	C495.857086,79.306419 507.052399,77.525940 515.741394,83.383842 
	C524.002319,88.953133 526.777161,99.785744 522.202393,108.606651 
	C517.373779,117.916939 506.653412,121.712753 496.566437,117.322945 
	C494.073944,116.238220 492.781006,116.523926 491.214539,118.520226 
	C488.543579,121.924049 485.800140,125.294502 482.816559,128.420715 
	C481.005859,130.317978 481.231720,131.599350 482.813202,133.414062 
	C484.776459,135.666824 486.623260,138.065399 488.203247,140.598770 
	C491.581970,146.016357 494.754486,149.265381 502.515900,146.772980 
	C511.192810,143.986572 521.068481,151.324722 523.619141,160.222626 
	C526.320557,169.646606 521.822876,179.614105 513.040466,183.666672 
	C504.277496,187.710266 493.194427,184.967667 488.494415,176.545334 
	C486.141785,172.329498 483.874390,172.571075 480.229340,173.492310 
	C472.814850,175.366241 465.334778,176.992416 457.849854,178.569473 
	C455.504944,179.063538 454.283691,179.671600 454.124512,182.568497 
	C453.583130,192.419296 446.695312,199.870117 437.630035,201.039719 
	C427.606659,202.332947 418.963562,197.109482 415.975677,187.438934 
	C415.040985,184.413834 413.657745,183.720993 410.771423,183.792618 
	C403.280396,183.978531 395.777649,183.996964 388.288025,183.784836 
	C385.323303,183.700851 384.133209,184.585144 383.182007,187.511230 
	C378.856384,200.817581 363.209808,205.581436 352.412445,197.110184 
	C346.135162,192.185242 343.428589,180.375092 346.896271,173.040466 
	C350.705597,164.983353 360.332397,160.235474 369.035706,162.849915 
	C372.933716,164.020874 374.579346,162.907074 376.308716,159.734879 
	C378.373657,155.947174 380.931610,152.426987 383.299561,148.806320 
	C384.310120,147.261185 385.677979,145.684311 383.100800,144.387451 
	C381.086365,143.373779 380.078949,139.991379 376.557281,142.710770 
	C369.558136,148.115463 362.042816,148.055695 354.100189,144.023849 
	C342.732513,138.253418 342.052002,114.658638 356.669312,109.368057 
z"/>
<path fill="#0A0A0A" opacity="1.000000" stroke="none" 
	d="
M67.784683,182.472687 
	C67.899635,181.180313 67.999405,180.352081 68.038925,179.520981 
	C68.181267,176.528076 69.018044,173.334137 68.250351,170.591858 
	C67.310837,167.235764 63.223740,168.641739 60.680328,167.417572 
	C52.920425,163.682632 48.357738,157.804443 48.016556,149.212646 
	C47.884895,145.897232 46.989170,145.064148 43.763569,145.067047 
	C33.062672,145.076706 30.077211,141.844849 30.074127,130.926102 
	C30.072340,124.597633 30.048077,118.269020 30.080877,111.940720 
	C30.125044,103.420204 34.108120,99.203911 42.594658,99.378433 
	C46.480949,99.458359 47.962517,98.767654 48.088104,94.379143 
	C48.386532,83.951035 57.396023,75.808037 68.344704,75.623840 
	C79.333183,75.438988 90.328323,75.660881 101.317581,75.501144 
	C103.302689,75.472305 106.419792,77.080124 107.089958,73.704498 
	C107.656410,70.851295 107.438354,68.267464 104.102127,66.159401 
	C93.990822,59.770386 94.098717,45.285374 103.949226,38.923286 
	C111.511337,34.039192 121.338661,36.068584 126.399437,43.559361 
	C131.394348,50.952644 129.472336,60.745918 122.039070,66.087082 
	C120.741760,67.019264 118.936508,67.313072 118.340622,69.189247 
	C116.980927,73.470322 118.507690,75.564705 123.165504,75.571449 
	C134.157028,75.587364 145.149765,75.478851 156.139847,75.606537 
	C168.148987,75.746071 176.549911,83.749023 177.127548,95.752525 
	C177.269638,98.705124 178.267990,99.275253 180.946701,99.340813 
	C192.102097,99.613808 194.969879,102.685905 194.972534,113.880150 
	C194.974045,120.208618 194.999054,126.537224 194.966354,132.865524 
	C194.922211,141.408722 191.312622,145.223404 182.902740,145.071945 
	C179.054199,145.002640 177.115601,145.309906 176.989410,150.194397 
	C176.719498,160.642242 167.499588,168.773666 156.655365,168.850632 
	C140.668442,168.964111 124.679543,168.957489 108.692978,168.823517 
	C105.657646,168.798080 103.336105,169.582672 101.060783,171.586563 
	C92.317146,179.287201 83.447784,186.845459 74.597267,194.424072 
	C72.987091,195.802856 71.412674,197.604187 68.908882,196.208282 
	C66.722878,194.989548 67.008842,192.898346 67.136169,190.905014 
	C67.305992,188.246475 67.537094,185.591827 67.784683,182.472687 
z"/>
<path fill="#101010" opacity="1.000000" stroke="none" 
	d="
M379.968781,277.876282 
	C379.969025,256.893219 380.067169,236.396072 379.888367,215.901337 
	C379.851624,211.691269 380.866394,210.006546 385.425964,210.035110 
	C413.586426,210.211563 441.748627,210.148773 469.910034,210.080917 
	C472.407074,210.074905 474.280670,210.671951 476.074768,212.522568 
	C482.913879,219.577057 489.844757,226.546936 496.900269,233.384399 
	C498.805420,235.230621 499.171112,237.200943 499.158813,239.628525 
	C499.093750,252.459213 499.236877,265.291962 499.053436,278.120331 
	C499.006683,281.389465 499.891663,282.308105 503.204285,282.303650 
	C515.150818,282.287567 515.151062,282.422699 515.151001,294.526733 
	C515.151001,312.356842 515.056580,330.187836 515.225281,348.016357 
	C515.261841,351.886658 514.214111,353.278992 510.151093,353.238312 
	C499.130280,353.127960 499.128479,353.307617 499.128479,364.306885 
	C499.128479,376.203308 499.128479,376.203339 487.375854,376.203308 
	C453.548645,376.203247 419.721069,376.130341 385.894623,376.290894 
	C381.430542,376.312042 379.468323,375.297852 379.879486,370.465485 
	C380.287628,365.667786 379.886719,360.806183 380.004395,355.976593 
	C380.057007,353.817291 379.336243,352.998993 377.140656,353.107971 
	C374.148590,353.256470 371.139252,353.044067 368.145325,353.172394 
	C365.277649,353.295319 363.867249,352.371124 363.879120,349.218170 
	C363.958282,328.222260 363.953369,307.225830 363.886169,286.229828 
	C363.876129,283.092865 365.387634,282.132050 368.197174,282.203125 
	C370.861664,282.270508 373.550201,282.006409 376.189941,282.270538 
	C379.339569,282.585693 380.500702,281.400146 379.968781,277.876282 
z"/>
<path fill="#FAFAFA" opacity="1.000000" stroke="none" 
	d="
M83.776108,314.816772 
	C89.097267,319.858612 92.552162,319.761841 97.087563,314.716156 
	C99.076988,312.502899 100.996017,310.226379 102.982971,307.937134 
	C106.314247,312.504761 106.541206,318.831482 102.563766,324.065674 
	C94.007721,335.325195 84.760147,346.077362 74.791603,356.087524 
	C68.469276,362.436249 57.294796,361.672058 50.652477,355.599030 
	C43.973553,349.492584 42.563164,338.795441 48.367542,331.616516 
	C56.730984,321.272461 65.540382,311.270081 74.518639,301.450256 
	C78.846596,296.716644 84.744133,295.626953 91.415810,296.989105 
	C88.849998,303.028656 80.197380,306.186432 83.776108,314.816772 
z"/>
<path fill="#F9F9F9" opacity="1.000000" stroke="none" 
	d="
M124.094055,261.551575 
	C118.217804,261.644043 116.236679,266.595123 112.079552,270.040314 
	C111.384888,265.014801 112.401642,261.027039 115.213707,257.700653 
	C123.370476,248.052139 131.541733,238.405746 140.027252,229.048660 
	C146.049500,222.407883 155.913773,222.163864 162.462982,227.937927 
	C169.123108,233.809814 169.914093,243.193344 163.969025,250.290359 
	C156.069336,259.720673 147.976181,268.992554 139.810257,278.194153 
	C136.915848,281.455688 133.273590,283.591522 127.654953,282.943451 
	C132.108185,278.046082 136.531509,273.514587 133.400787,266.843628 
	C131.687332,263.192627 128.519714,261.557983 124.094055,261.551575 
z"/>
<path fill="#FDFDFD" opacity="1.000000" stroke="none" 
	d="
M116.558632,299.318665 
	C115.897621,298.764282 115.583817,298.076080 117.113647,298.490387 
	C117.121918,298.858643 116.966766,298.997253 116.558632,299.318665 
z"/>
<path fill="#F9F9F9" opacity="1.000000" stroke="none" 
	d="
M266.120819,84.769196 
	C285.193115,85.150436 303.564240,83.912827 321.231506,77.437607 
	C321.544464,77.322922 321.851868,77.186188 322.172882,77.101547 
	C325.196442,76.304375 328.415833,72.492928 330.566925,73.959778 
	C333.035767,75.643280 331.269440,80.112282 331.439850,83.359627 
	C331.623016,86.849838 331.144806,90.397057 331.554688,93.848206 
	C332.292267,100.058334 329.131744,103.464066 324.025635,105.943794 
	C314.920502,110.365623 305.220673,112.672020 295.269989,113.838531 
	C273.077484,116.440163 251.045624,116.061874 229.470276,109.347939 
	C228.201279,108.953049 226.946167,108.503677 225.709366,108.016724 
	C214.670334,103.670403 213.764877,102.331543 213.765640,90.441719 
	C213.765945,85.608627 213.812912,80.774994 213.752701,75.942680 
	C213.721893,73.469383 214.601486,73.069160 216.735794,74.170784 
	C232.078613,82.089981 248.748703,83.938438 266.120819,84.769196 
z"/>
<path fill="#F9F9F9" opacity="1.000000" stroke="none" 
	d="
M331.481415,169.724304 
	C331.887329,175.230835 328.580963,177.714096 324.758179,179.720734 
	C315.629852,184.512360 305.725494,186.733673 295.609772,187.979065 
	C273.425018,190.710312 251.414536,190.254944 229.827484,183.667282 
	C228.079788,183.133957 226.353165,182.508926 224.662506,181.815033 
	C214.819199,177.775162 213.764587,176.177689 213.764954,165.508896 
	C213.765106,161.177307 213.852661,156.843414 213.737427,152.514923 
	C213.660400,149.621750 214.373489,149.205246 217.162399,150.363373 
	C251.758179,164.729797 286.797241,163.962387 322.080292,153.129669 
	C322.556549,152.983459 323.019409,152.788635 323.478912,152.593826 
	C331.482025,149.200851 331.481720,149.200073 331.481842,157.764862 
	C331.481903,161.596603 331.481781,165.428360 331.481415,169.724304 
z"/>
<path fill="#F9F9F9" opacity="1.000000" stroke="none" 
	d="
M287.216827,123.083870 
	C301.551788,122.124512 315.107910,119.784355 327.639130,113.412567 
	C330.890778,111.759216 331.611450,112.591019 331.520325,115.888115 
	C331.373169,121.214066 331.225372,126.563141 331.557922,131.872375 
	C331.859680,136.690720 329.830597,139.763245 325.839783,142.023682 
	C319.830627,145.427353 313.359406,147.576492 306.647095,148.890381 
	C279.423523,154.219223 252.409302,154.315475 225.856567,145.119492 
	C223.823685,144.415451 221.887329,143.408997 219.953110,142.448471 
	C215.518539,140.246292 213.236908,136.996338 213.666367,131.682220 
	C214.107681,126.221169 213.828659,120.695961 213.742264,115.200760 
	C213.700806,112.564812 214.438965,112.011192 216.927170,113.186295 
	C239.167908,123.689911 262.771576,124.769485 287.216827,123.083870 
z"/>
<path fill="#FBFBFB" opacity="1.000000" stroke="none" 
	d="
M215.541733,63.247719 
	C212.112549,58.789234 214.647873,56.136463 217.910172,53.945923 
	C224.383896,49.598980 231.806458,47.402096 239.302444,45.999748 
	C265.185303,41.157562 290.972107,41.160320 316.403473,48.933811 
	C320.224976,50.101906 323.908203,51.712803 327.217285,54.013626 
	C332.684448,57.814980 332.680115,61.516785 327.049286,65.233032 
	C320.256073,69.716385 312.504639,71.877197 304.651306,73.327362 
	C279.755646,77.924500 254.953018,77.802597 230.448303,70.754478 
	C225.172211,69.236961 220.003845,67.311630 215.541733,63.247719 
z"/>
<path fill="#FEFEFE" opacity="1.000000" stroke="none" 
	d="
M214.851578,284.934265 
	C217.654099,257.677765 241.066559,236.597412 268.518402,236.222916 
	C295.400238,235.856201 319.336823,256.065643 323.090973,282.298096 
	C327.380951,312.274261 308.131592,339.484070 278.882263,344.789032 
	C249.661774,350.088806 221.920593,331.273712 215.547516,301.737488 
	C214.386063,296.354706 213.937653,290.872498 214.851578,284.934265 
z"/>
<path fill="#FAFAFA" opacity="1.000000" stroke="none" 
	d="
M436.533936,166.302734 
	C446.281281,168.946396 450.867523,174.966568 450.037842,183.563904 
	C449.360168,190.586441 443.328583,196.472076 436.214050,197.053207 
	C427.083679,197.798996 419.378784,191.142822 419.072235,182.244598 
	C418.753387,172.990372 425.821259,166.363953 436.533936,166.302734 
z"/>
<path fill="#FAFAFA" opacity="1.000000" stroke="none" 
	d="
M377.136444,81.970383 
	C372.300507,87.955956 366.299194,89.678490 359.510315,87.518318 
	C353.474091,85.597664 349.853546,81.059769 349.126343,74.726440 
	C348.373932,68.173309 351.054688,63.034214 356.719147,59.628719 
	C362.723206,56.019085 370.605621,57.087273 375.543152,62.020821 
	C380.816650,67.290054 381.456879,74.246735 377.136444,81.970383 
z"/>
<path fill="#FAFAFA" opacity="1.000000" stroke="none" 
	d="
M360.966797,142.340652 
	C352.381470,139.307678 348.082733,132.962402 349.093140,125.259079 
	C350.021790,118.178963 356.081665,112.454056 363.169037,111.961159 
	C370.809662,111.429794 377.396851,115.922249 379.485840,123.089180 
	C382.721863,134.191559 373.538635,143.995926 360.966797,142.340652 
z"/>
<path fill="#F9F9F9" opacity="1.000000" stroke="none" 
	d="
M519.836670,95.765396 
	C520.688232,104.735962 517.836182,110.590683 511.431305,113.609520 
	C505.580048,116.367432 498.465240,115.242142 493.906403,110.652168 
	C489.421021,106.136093 487.946991,100.722481 490.060883,94.649643 
	C492.162598,88.611725 496.641541,85.069626 502.901703,84.275597 
	C509.214355,83.474922 514.245972,86.089050 517.820129,91.331284 
	C518.648987,92.546974 519.114502,94.010384 519.836670,95.765396 
z"/>
<path fill="#FAFAFA" opacity="1.000000" stroke="none" 
	d="
M434.133057,142.841827 
	C426.150940,141.878036 421.191132,137.816635 419.377350,130.340317 
	C417.968475,124.532951 420.626587,118.113541 425.760803,114.680183 
	C431.239990,111.016159 436.972992,110.856598 442.676788,114.132408 
	C448.152710,117.277359 451.039825,123.395752 449.931061,129.857697 
	C448.852356,136.144638 445.048492,140.258347 438.934784,142.112778 
	C437.524139,142.540665 436.005951,142.614136 434.133057,142.841827 
z"/>
<path fill="#FAFAFA" opacity="1.000000" stroke="none" 
	d="
M371.678528,168.001862 
	C379.103210,173.107666 381.611267,179.459915 379.273346,186.502579 
	C377.073364,193.129547 371.141754,197.266129 364.066681,197.107330 
	C357.173065,196.952606 351.233337,192.384628 349.502533,185.617325 
	C347.969666,179.623993 349.546356,174.333466 354.188965,170.263763 
	C359.286072,165.795609 365.089691,164.926132 371.678528,168.001862 
z"/>
<path fill="#FAFAFA" opacity="1.000000" stroke="none" 
	d="
M448.466431,65.899124 
	C452.149109,75.852089 448.279572,84.852066 439.459229,87.675568 
	C430.904236,90.414108 421.901062,85.458008 419.560730,76.721733 
	C417.661499,69.631966 421.276306,62.091095 428.082275,58.944962 
	C435.553070,55.491524 443.153900,57.989326 448.466431,65.899124 
z"/>
<path fill="#FAFAFA" opacity="1.000000" stroke="none" 
	d="
M509.938843,180.436737 
	C496.577728,184.172287 487.533661,173.113083 489.388275,163.270325 
	C490.781525,155.876282 496.973907,150.600571 504.413483,150.392349 
	C511.493927,150.194199 518.218506,155.302200 519.868835,162.132233 
	C521.704590,169.729813 518.144470,176.480026 509.938843,180.436737 
z"/>
<path fill="#F9F9F9" opacity="1.000000" stroke="none" 
	d="
M418.316895,152.593628 
	C417.573669,151.447342 416.886841,150.667908 416.531158,149.758911 
	C415.872040,148.074280 412.783722,146.625809 415.926605,144.460571 
	C418.179169,142.908722 419.587311,140.288620 423.298248,143.089645 
	C431.239044,149.083389 441.239014,148.223221 448.241455,141.257141 
	C450.542206,138.968369 452.064362,138.947815 454.486084,140.530548 
	C457.108887,142.244675 459.933777,143.649582 462.949158,145.346130 
	C457.694366,151.517975 452.604523,157.413666 447.625397,163.401382 
	C446.356293,164.927490 445.349304,165.282959 443.459167,164.284958 
	C438.526306,161.680405 433.239990,161.248642 428.053680,163.323074 
	C425.799469,164.224716 425.099579,163.184341 424.167877,161.700821 
	C422.314667,158.749985 420.407532,155.832993 418.316895,152.593628 
z"/>
<path fill="#F7F7F7" opacity="1.000000" stroke="none" 
	d="
M435.694031,92.458191 
	C436.752106,92.332321 437.518738,92.437523 438.052887,92.133827 
	C444.274231,88.596611 447.237518,92.417404 450.356476,97.069717 
	C454.133453,102.703651 458.464813,107.965942 462.517426,113.337540 
	C461.379578,115.070518 459.546173,115.079636 458.138947,115.859558 
	C454.511353,117.870148 451.959778,118.017700 448.752350,114.039154 
	C442.605164,106.414146 431.297150,105.508347 423.153931,111.666901 
	C419.332153,114.557243 417.979095,111.471046 415.779083,110.063477 
	C412.884369,108.211441 415.581848,106.724518 416.310089,105.226379 
	C417.029572,103.746223 418.279877,102.515793 418.946075,101.019440 
	C422.157501,93.806305 426.586487,89.094269 435.694031,92.458191 
z"/>
<path fill="#F8F8F8" opacity="1.000000" stroke="none" 
	d="
M460.356384,103.626617 
	C456.839264,98.976776 453.632355,94.539116 450.220093,90.265419 
	C448.704529,88.367279 448.233429,87.079880 450.033691,84.881142 
	C451.718353,82.823624 452.820526,81.877083 455.618347,83.019638 
	C464.352325,86.586380 473.214050,89.843750 482.059662,93.131271 
	C484.256500,93.947739 484.870300,94.981575 485.343445,97.576981 
	C486.621277,104.586067 482.965179,106.929832 477.323395,108.235741 
	C477.164429,108.272537 477.019623,108.367691 476.865417,108.428551 
	C466.886292,112.367897 466.886261,112.367836 460.356384,103.626617 
z"/>
<path fill="#F9F9F9" opacity="1.000000" stroke="none" 
	d="
M458.241516,174.226852 
	C453.258484,176.862289 452.568878,172.697754 450.537964,170.345398 
	C448.038696,167.450592 450.636963,166.255478 451.950592,164.670914 
	C455.771576,160.062134 459.832672,155.647232 463.539246,150.950806 
	C465.704468,148.207336 467.542419,147.068253 470.816925,149.468781 
	C473.607178,151.514297 476.764008,153.179932 479.966766,154.514099 
	C484.644135,156.462509 486.998840,158.780823 485.311157,164.520721 
	C484.476257,167.360260 483.958313,168.615173 481.023010,169.180832 
	C473.523682,170.626038 466.098541,172.456177 458.241516,174.226852 
z"/>
<path fill="#F6F6F6" opacity="1.000000" stroke="none" 
	d="
M387.438538,179.754623 
	C381.971222,179.948578 383.976715,175.110352 382.200256,172.938126 
	C380.627991,171.015579 382.883514,170.117630 384.095856,169.163681 
	C388.401703,165.775497 392.821899,162.527603 397.038147,159.032822 
	C398.880585,157.505661 400.170868,157.395462 402.069672,158.967407 
	C406.415375,162.565063 410.916656,165.980713 415.446289,169.347168 
	C417.125092,170.594849 418.148651,171.855301 416.690216,173.760880 
	C415.125641,175.805099 416.669800,180.028610 411.805908,179.839294 
	C403.845184,179.529419 395.863586,179.755066 387.438538,179.754623 
z"/>
<path fill="#F9F9F9" opacity="1.000000" stroke="none" 
	d="
M411.399567,88.376846 
	C407.263458,91.448906 403.402771,96.521492 399.553772,96.512657 
	C395.702271,96.503815 391.859741,91.419991 388.019287,88.552696 
	C387.089386,87.858444 386.116425,87.202629 385.280182,86.406319 
	C383.669464,84.872467 380.586639,84.253700 382.491669,80.678658 
	C384.020233,77.810028 383.858002,74.304565 389.066528,74.820145 
	C396.295929,75.535789 403.649384,75.024895 410.949432,74.984886 
	C413.122772,74.972969 415.323822,74.642403 415.629028,77.779045 
	C415.892822,80.490288 419.447052,83.452972 414.838165,85.743233 
	C413.674255,86.321579 412.726959,87.335854 411.399567,88.376846 
z"/>
<path fill="#F7F7F7" opacity="1.000000" stroke="none" 
	d="
M454.122925,135.704788 
	C453.189575,131.305786 454.650024,127.194725 454.117157,122.935417 
	C453.846802,120.774712 456.779449,120.860916 458.325531,120.214561 
	C465.467468,117.228828 465.495636,117.296196 470.087494,123.376915 
	C475.564331,130.629547 475.322937,130.442612 469.693481,137.710419 
	C466.769867,141.484879 464.311737,142.214340 460.530151,139.274384 
	C458.725037,137.870972 456.492737,137.016953 454.122925,135.704788 
z"/>
<path fill="#F1F1F1" opacity="1.000000" stroke="none" 
	d="
M481.914368,138.999298 
	C484.721832,142.743378 487.294464,146.207443 489.945435,149.610504 
	C490.876007,150.805084 491.194550,151.727188 489.998505,153.026993 
	C488.894745,154.226486 487.974701,154.401794 486.578094,153.614578 
	C481.668243,150.847015 476.733429,148.121567 471.761719,145.467056 
	C470.079193,144.568741 469.479340,143.741913 471.060028,142.173599 
	C472.233612,141.009216 473.218994,139.655991 474.298218,138.395447 
	C478.079681,133.978409 478.081329,133.979828 481.914368,138.999298 
z"/>
<path fill="#F3F3F3" opacity="1.000000" stroke="none" 
	d="
M392.473816,112.508904 
	C391.212433,110.793625 390.363464,109.442085 392.512421,108.153198 
	C393.641632,107.475945 394.763245,106.682487 395.647858,105.720436 
	C398.280670,102.857040 400.329224,103.297264 403.531647,105.522583 
	C407.928284,108.577721 408.710938,111.053940 405.110535,115.139320 
	C403.062531,117.463203 401.635193,120.334084 399.598083,123.466515 
	C397.107391,119.624649 394.896454,116.214310 392.473816,112.508904 
z"/>
<path fill="#F3F3F3" opacity="1.000000" stroke="none" 
	d="
M396.675415,135.636688 
	C397.709198,134.118088 398.531494,132.899521 399.655396,131.233948 
	C402.383331,135.454010 404.832062,139.363342 407.416992,143.180420 
	C408.430664,144.677338 408.012329,145.567169 406.690613,146.432770 
	C406.000275,146.884888 405.422119,147.517380 404.712463,147.929214 
	C402.798767,149.039795 401.339417,152.105927 399.112366,151.187103 
	C396.305664,150.029129 393.997437,147.610840 391.562775,145.627487 
	C390.496307,144.758698 391.376221,143.850220 391.897522,143.037079 
	C393.416229,140.668121 394.941315,138.303223 396.675415,135.636688 
z"/>
<path fill="#F3F3F3" opacity="1.000000" stroke="none" 
	d="
M477.097595,125.832550 
	C475.184143,123.289925 473.585724,120.941948 471.748444,118.798714 
	C469.966187,116.719711 469.474335,115.432091 472.748260,114.365860 
	C477.005676,112.979332 481.152008,111.226624 485.275543,109.466202 
	C486.907013,108.769691 487.775604,109.266724 488.487366,110.632431 
	C489.112366,111.831604 490.917480,112.714142 489.382050,114.471138 
	C485.879120,118.479607 482.440094,122.543976 478.931763,126.547653 
	C478.277618,127.294136 477.808319,126.435371 477.097595,125.832550 
z"/>
<path fill="#EEEEEE" opacity="1.000000" stroke="none" 
	d="
M377.238312,166.000397 
	C380.196655,161.183762 383.326813,156.846603 385.875702,152.191208 
	C387.770142,148.731140 389.443512,148.457764 392.081543,151.199661 
	C393.218445,152.381348 394.639740,153.289459 396.224304,154.555542 
	C390.745575,158.811493 385.486694,162.864258 380.270111,166.970718 
	C378.893677,168.054230 377.917206,167.943024 377.238312,166.000397 
z"/>
<path fill="#ECECEC" opacity="1.000000" stroke="none" 
	d="
M421.785339,165.643463 
	C421.122009,168.952698 419.662354,167.536209 418.358154,166.528687 
	C413.375824,162.679718 408.419586,158.796906 403.485962,154.951950 
	C403.626526,154.496521 403.624756,154.143524 403.798920,153.989838 
	C410.511322,148.066620 410.513275,148.069168 415.435516,155.662460 
	C417.510376,158.863251 419.586182,162.063446 421.785339,165.643463 
z"/>
<path fill="#EEEEEE" opacity="1.000000" stroke="none" 
	d="
M412.158203,104.062012 
	C411.327026,105.381622 410.765656,106.368385 409.345886,105.160774 
	C407.455414,103.552834 405.445221,102.085648 402.957458,100.145416 
	C408.483795,95.831306 413.797089,91.675552 419.122986,87.535942 
	C419.789276,87.018059 420.510651,86.624107 421.320465,87.362396 
	C422.315338,88.269386 421.831299,89.092995 421.260712,89.970963 
	C418.278534,94.559929 415.314392,99.160622 412.158203,104.062012 
z"/>
<path fill="#EEEEEE" opacity="1.000000" stroke="none" 
	d="
M379.302368,87.141769 
	C385.022583,91.408249 390.362183,95.558044 395.584381,99.616600 
	C395.453949,100.228569 395.493164,100.626060 395.320404,100.771240 
	C388.574402,106.440163 388.571899,106.437126 383.763306,98.996559 
	C381.878601,96.080200 380.003510,93.157532 378.104401,90.250572 
	C377.192963,88.855423 376.505249,87.558060 379.302368,87.141769 
z"/>
<path fill="#ECECEC" opacity="1.000000" stroke="none" 
	d="
M387.668640,141.759613 
	C380.684113,138.004166 380.669250,137.727264 383.850555,130.813248 
	C384.502533,129.396271 385.317047,129.253387 386.500916,129.251984 
	C389.269836,129.248703 392.038727,129.250916 395.952026,129.250916 
	C392.936462,133.896515 390.453217,137.722092 387.668640,141.759613 
z"/>
<path fill="#ECECEC" opacity="1.000000" stroke="none" 
	d="
M409.098877,129.246704 
	C415.567963,127.483704 415.500275,132.567978 416.995972,135.897079 
	C418.510925,139.269135 415.002625,139.436279 413.695709,140.969849 
	C412.278351,142.633041 411.218384,141.796036 410.275116,140.259766 
	C408.197906,136.876724 406.037598,133.544662 403.895477,130.167023 
	C405.398163,128.516708 407.156555,129.577484 409.098877,129.246704 
z"/>
<path fill="#F3F3F3" opacity="1.000000" stroke="none" 
	d="
M409.108765,125.229622 
	C407.217224,125.229851 405.770630,125.229851 403.481415,125.229851 
	C405.895874,121.412003 407.844360,118.212822 409.929047,115.105034 
	C410.572052,114.146507 410.989227,112.050163 412.669525,113.092117 
	C414.529144,114.245255 417.270752,115.078079 417.384735,117.727951 
	C417.574219,122.131119 414.132172,125.215485 409.108765,125.229622 
z"/>
<path fill="#F3F3F3" opacity="1.000000" stroke="none" 
	d="
M393.566498,121.758545 
	C394.109406,122.966805 395.488495,123.707832 394.762848,124.674759 
	C393.223633,126.725769 384.100403,124.811790 383.614716,122.261932 
	C383.216919,120.173424 380.563049,118.416183 382.568115,115.921455 
	C385.600067,112.148956 387.430573,112.254936 390.102448,116.408974 
	C391.180573,118.085159 392.259918,119.760559 393.566498,121.758545 
z"/>
<path fill="#FCFCFC" opacity="1.000000" stroke="none" 
	d="
M75.148254,178.055206 
	C75.375206,174.791885 75.606476,171.967590 75.748253,169.138794 
	C76.092407,162.272324 75.855484,161.934509 69.102119,161.892517 
	C66.145126,161.874115 63.440674,161.199173 61.073826,159.577286 
	C57.153084,156.890564 54.870026,153.218689 54.879326,148.275833 
	C54.911938,130.943344 54.837376,113.610504 54.919712,96.278343 
	C54.956470,88.540726 60.292065,82.921158 68.018486,82.888603 
	C97.683075,82.763611 127.348778,82.765236 157.013412,82.883911 
	C164.748444,82.914848 170.140488,88.482002 170.189636,96.211052 
	C170.298782,113.376266 170.287506,130.542908 170.203094,147.708389 
	C170.161911,156.084869 164.460571,161.768631 156.034042,161.818756 
	C139.868652,161.914917 123.700035,161.998154 107.537834,161.752609 
	C103.184906,161.686478 100.001221,163.016342 96.849556,165.877640 
	C89.996071,172.099747 82.845329,177.994415 75.111877,184.626877 
	C75.111877,181.974533 75.111877,180.233353 75.148254,178.055206 
z"/>
<path fill="#F9F9F9" opacity="1.000000" stroke="none" 
	d="
M385.001556,348.205048 
	C379.407410,347.897827 372.605194,350.373444 369.706970,347.197754 
	C367.183960,344.433228 368.901917,337.725586 368.885803,332.759857 
	C368.841400,319.097260 368.971252,305.433136 368.798218,291.772583 
	C368.756012,288.441467 369.437439,287.225372 373.100403,287.236267 
	C417.420654,287.367828 461.741577,287.372437 506.061798,287.231110 
	C509.872070,287.218964 510.303162,288.674408 510.278870,291.873932 
	C510.148743,309.034698 510.101990,326.198364 510.306610,343.357666 
	C510.352112,347.173523 509.479004,348.321503 505.466278,348.304993 
	C465.478424,348.140137 425.489594,348.205017 385.001556,348.205048 
z"/>
<path fill="#FAFAFA" opacity="1.000000" stroke="none" 
	d="
M438.000092,215.172165 
	C447.664764,215.172180 456.833313,215.324799 465.992065,215.092300 
	C469.355286,215.006912 470.493286,216.076035 470.059601,219.308533 
	C469.861969,220.781601 469.999664,222.303955 470.032196,223.802933 
	C470.237427,233.254364 475.979401,239.040161 485.319489,239.223511 
	C494.028381,239.394485 494.028381,239.394470 494.028381,248.246994 
	C494.028351,258.244781 493.936890,268.243958 494.086243,278.239532 
	C494.128754,281.084534 493.690765,282.316376 490.363403,282.303589 
	C456.537994,282.173431 422.711823,282.185638 388.886261,282.289398 
	C385.831604,282.298767 384.959808,281.501465 384.982483,278.394501 
	C385.127258,258.566589 385.134430,238.736496 384.978271,218.908752 
	C384.952576,215.650101 386.097473,215.090683 389.011230,215.113052 
	C405.173370,215.237091 421.336975,215.172302 438.000092,215.172165 
z"/>
<path fill="#FBFBFB" opacity="1.000000" stroke="none" 
	d="
M448.999939,371.154663 
	C429.018127,371.154633 409.535645,371.074219 390.055054,371.226807 
	C386.434753,371.255127 384.437958,370.756927 384.994843,366.479797 
	C385.546967,362.238861 383.244415,356.658112 385.883209,353.987457 
	C388.532684,351.306000 394.095398,353.186859 398.370636,353.176666 
	C428.509003,353.104858 458.648041,353.211731 488.785706,353.049316 
	C492.718414,353.028137 494.678741,353.660431 494.080597,358.082031 
	C493.509644,362.302277 495.892090,367.996124 493.038361,370.441711 
	C490.601685,372.529907 485.110931,371.124390 480.970612,371.140808 
	C470.480560,371.182434 459.990204,371.154633 448.999939,371.154663 
z"/>
<path fill="#ECECEC" opacity="1.000000" stroke="none" 
	d="
M488.736176,232.382477 
	C489.752014,233.601151 489.434662,234.007355 488.301453,234.175873 
	C479.118805,235.541489 474.485352,230.593399 475.319458,218.907516 
	C480.077637,223.687286 484.276611,227.905334 488.736176,232.382477 
z"/>
<path fill="#0A0A0A" opacity="1.000000" stroke="none" 
	d="
M318.259705,94.972824 
	C317.696472,98.621292 316.149139,100.869255 312.581360,101.197426 
	C309.704010,101.462090 307.361572,100.705574 305.950043,97.987534 
	C304.242798,94.700127 305.545746,90.586021 308.783691,89.142090 
	C312.008911,87.703835 317.670959,88.649681 318.259705,94.972824 
z"/>
<path fill="#0A0A0A" opacity="1.000000" stroke="none" 
	d="
M318.065399,172.621964 
	C316.441223,176.635254 313.655518,177.895538 309.946869,177.117447 
	C306.962494,176.491302 305.436462,174.320511 305.245941,171.456680 
	C305.042725,168.402527 306.295868,165.960220 309.433777,164.938477 
	C312.389435,163.976059 314.969604,164.547333 316.946777,167.075790 
	C318.135193,168.595566 318.474182,170.340195 318.065399,172.621964 
z"/>
<path fill="#0D0D0D" opacity="1.000000" stroke="none" 
	d="
M310.349731,140.049530 
	C306.257294,138.700119 304.705200,136.064758 305.371490,132.263931 
	C305.895538,129.274582 308.089783,127.647667 310.858704,127.226906 
	C313.953705,126.756615 316.349457,128.259384 317.691956,131.106476 
	C319.804230,135.586151 316.653442,139.627457 310.349731,140.049530 
z"/>
<path fill="#090909" opacity="1.000000" stroke="none" 
	d="
M131.967560,121.023682 
	C127.233635,114.109856 127.719093,107.482651 133.004730,102.911865 
	C137.446335,99.070946 144.537735,99.003365 149.031570,102.759102 
	C154.476898,107.310066 155.230072,115.196991 150.731552,120.560768 
	C145.956146,126.254684 138.726364,126.535530 131.967560,121.023682 
z"/>
<path fill="#090909" opacity="1.000000" stroke="none" 
	d="
M73.516739,105.670822 
	C79.679482,98.729179 87.807686,98.126358 93.154808,103.917992 
	C98.228500,109.413490 97.569862,117.754494 91.694649,122.409065 
	C87.259064,125.923126 81.002464,125.959297 76.460953,122.497124 
	C71.404686,118.642548 70.264725,112.664787 73.516739,105.670822 
z"/>
<path fill="#0D0D0D" opacity="1.000000" stroke="none" 
	d="
M96.369019,144.722961 
	C95.769485,144.360428 95.461899,144.211212 95.213860,143.993973 
	C93.362114,142.372131 89.693504,141.324646 92.177917,137.938828 
	C94.277351,135.077667 96.886787,136.634094 99.176338,138.269394 
	C107.938232,144.527588 116.776543,144.340958 125.670677,138.551773 
	C126.368698,138.097427 127.034637,137.582001 127.769318,137.197968 
	C129.926331,136.070389 132.129486,135.983475 133.485306,138.220108 
	C134.840393,140.455536 133.250427,141.882950 131.442032,143.079758 
	C120.208893,150.513779 108.669685,151.845963 96.369019,144.722961 
z"/>
<path fill="#0E0E0E" opacity="1.000000" stroke="none" 
	d="
M497.066589,311.044098 
	C497.066589,317.523804 497.143494,323.510345 497.009003,329.492126 
	C496.977814,330.879303 498.175293,333.213257 495.497345,333.445068 
	C493.319702,333.633606 490.956329,334.232269 489.393463,331.478241 
	C486.526794,326.426758 483.336578,321.558441 480.258209,316.628143 
	C479.857666,315.986694 479.725647,314.991455 478.179108,315.118103 
	C478.179108,319.819885 478.205322,324.560181 478.166809,329.299988 
	C478.150330,331.325012 478.927185,333.634216 475.250916,333.640533 
	C471.858124,333.646332 472.051666,331.803650 472.067657,329.513580 
	C472.122253,321.700500 472.036926,313.886108 472.134613,306.073853 
	C472.152466,304.645630 471.102051,302.355865 473.665924,302.078613 
	C475.842499,301.843262 478.197937,301.312073 479.730194,304.087067 
	C482.295868,308.733521 485.221588,313.181519 488.009399,317.704620 
	C488.749695,318.905731 489.539642,320.076263 491.186493,321.033539 
	C491.186493,315.965454 491.201630,310.897339 491.179077,305.829346 
	C491.169952,303.784851 490.913147,301.958160 494.069641,301.883301 
	C497.137878,301.810547 497.191467,303.384247 497.082672,305.562714 
	C496.999847,307.221008 497.066437,308.886749 497.066589,311.044098 
z"/>
<path fill="#0D0D0D" opacity="1.000000" stroke="none" 
	d="
M439.450806,307.647644 
	C445.193024,301.093140 454.252380,299.617737 460.729401,303.910950 
	C467.221436,308.214111 469.348175,318.557007 465.361450,326.437897 
	C461.991089,333.100342 453.826355,335.886261 445.981354,333.050720 
	C438.465179,330.334015 434.709747,321.183685 437.434784,312.052032 
	C437.857788,310.634491 438.620880,309.318420 439.450806,307.647644 
z"/>
<path fill="#111111" opacity="1.000000" stroke="none" 
	d="
M410.763184,316.227722 
	C406.119843,308.588806 409.300659,302.318146 417.851990,301.651947 
	C422.423035,301.295807 427.017761,301.445709 430.027985,305.646210 
	C431.044952,307.065338 433.100830,309.309845 430.898987,310.698181 
	C429.364319,311.665833 426.381226,312.448822 424.880890,309.523895 
	C423.209839,306.266113 420.258545,306.799072 417.450104,307.101715 
	C416.027710,307.255005 414.891449,308.082458 414.696381,309.578918 
	C414.493378,311.136078 415.522522,312.080688 416.882507,312.512451 
	C419.575073,313.367249 422.326813,314.036682 425.014740,314.904724 
	C430.521790,316.683105 433.367859,320.401886 432.866058,325.013977 
	C432.356232,329.699677 428.851257,333.030609 423.496216,333.918610 
	C416.569092,335.067291 410.634277,332.772430 408.489807,327.838531 
	C407.888000,326.453979 405.978119,324.263885 408.420624,323.297913 
	C410.128418,322.622559 412.739838,321.419098 414.189606,324.900269 
	C415.746368,328.638367 419.065979,329.551819 422.943115,328.237305 
	C424.857666,327.588165 426.228424,326.481201 426.228790,324.364899 
	C426.229126,322.363678 424.731628,321.589752 423.046234,321.041168 
	C418.969910,319.714325 414.509460,319.393494 410.763184,316.227722 
z"/>
<path fill="#0C0C0C" opacity="1.000000" stroke="none" 
	d="
M398.118744,332.353394 
	C389.826752,335.617706 383.802582,333.563660 382.389160,327.261108 
	C382.111572,326.023407 380.970734,324.050598 383.508331,323.786621 
	C385.130890,323.617767 387.458282,321.591736 388.196198,325.166992 
	C388.684814,327.534454 390.195618,329.036621 392.850677,328.461731 
	C395.333099,327.924225 395.683472,325.838531 395.710175,323.792114 
	C395.790710,317.627289 395.809296,311.460693 395.754059,305.295624 
	C395.735535,303.227173 395.874847,301.837341 398.618866,301.903534 
	C401.088684,301.963135 402.213318,302.467163 402.132385,305.226868 
	C401.946838,311.554169 402.076813,317.890228 402.035492,324.222443 
	C402.014954,327.369324 401.006378,330.103790 398.118744,332.353394 
z"/>
<path fill="#0C0C0C" opacity="1.000000" stroke="none" 
	d="
M399.794525,254.216339 
	C400.997375,251.690338 402.974426,252.115601 404.754608,252.114426 
	C428.060181,252.099121 451.365784,252.103226 474.671356,252.106415 
	C476.842773,252.106705 479.528015,251.848877 479.343658,255.006470 
	C479.172760,257.933838 476.471039,257.183990 474.613129,257.186951 
	C451.307617,257.224213 428.001953,257.226624 404.696472,257.185486 
	C402.694824,257.181946 400.093140,257.984985 399.794525,254.216339 
z"/>
<path fill="#0A0A0A" opacity="1.000000" stroke="none" 
	d="
M433.000000,265.992615 
	C447.166168,265.992767 460.832367,265.971283 474.498383,266.016754 
	C476.515900,266.023468 479.464508,265.279968 479.332550,268.607178 
	C479.222717,271.377167 476.582581,270.932617 474.625305,270.933441 
	C451.292816,270.943359 427.960358,270.949707 404.627899,270.922272 
	C402.571381,270.919861 399.694061,271.546417 399.807312,268.257416 
	C399.908112,265.331818 402.621582,266.024597 404.501160,266.015045 
	C413.833893,265.967590 423.167023,265.992920 433.000000,265.992615 
z"/>
<path fill="#161616" opacity="1.000000" stroke="none" 
	d="
M452.466736,238.667191 
	C454.933472,238.840179 457.897034,238.022308 457.667999,241.356918 
	C457.487488,243.985168 454.862488,243.685104 452.885986,243.686661 
	C436.733917,243.699326 420.581848,243.702972 404.429810,243.680634 
	C402.480621,243.677948 399.871368,244.042801 399.756500,241.279694 
	C399.614899,237.874695 402.589722,238.704773 404.571869,238.697952 
	C420.390717,238.643539 436.209869,238.667313 452.466736,238.667191 
z"/>
<path fill="#F5F5F5" opacity="1.000000" stroke="none" 
	d="
M449.846619,328.233612 
	C444.252808,325.440552 442.442322,321.376312 443.542358,314.838226 
	C444.243500,310.670898 446.302307,307.695892 450.725403,307.049805 
	C454.115448,306.554626 457.208710,307.510101 458.901154,310.598938 
	C461.364502,315.094849 461.426544,319.927551 459.042450,324.464813 
	C457.241302,327.892700 454.109375,329.221802 449.846619,328.233612 
z"/>
</svg>